<svg xmlns="http://www.w3.org/2000/svg" viewBox="0 0 457.33 130.93"><defs><style>.cls-1{fill:#121212;}</style></defs><g id="Layer_2" data-name="Layer 2"><g id="Layer_1-2" data-name="Layer 1"><path class="cls-1" d="M2.11,88.17H39.53v14H32.3V95.26H24.93l-.07,27.17h6v7.1H10.67v-7.1h6l.07-27.17H9.34v6.95H2.11Z" transform="translate(-2.11)"/><path class="cls-1" d="M45.08,88.17l18.12.07v7h-4l-.07,9.83h17.7l.07-9.83H72.82V88.17H90.93v7.09H85L85,122.43h6v7.1h-18v-7.1h3.93V112.11H59.12v10.32h3.94v7.1H45v-7.1h6l.07-27.17h-6Z" transform="translate(-2.11)"/><path class="cls-1" d="M96.83,88.17h31.88l4.14,12.43-6.67,2.24-2.67-7.58H110.94V105h11.94v7H110.94v10.46h14.33l2.6-7,6.6,2.32-4.07,11.8H96.76v-7.1h6l.07-27.17h-6Z" transform="translate(-2.11)"/><path class="cls-1" d="M156.38,88.17l18.11.07v7h-4l-.07,9.83h17.7l.07-9.83h-4.08V88.17h18.12v7.09h-5.9l-.07,27.17h6v7.1h-18v-7.1h3.94V112.11h-17.7v10.32h3.93v7.1h-18v-7.1h6l.07-27.17h-6Z" transform="translate(-2.11)"/><path class="cls-1" d="M228.56,86.76a21.59,21.59,0,0,1,10.74,2.6,18.09,18.09,0,0,1,7.24,7.51,25.32,25.32,0,0,1,2.6,11.94,25.5,25.5,0,0,1-2.6,12,18.05,18.05,0,0,1-7.2,7.55,23.21,23.21,0,0,1-21.35,0,18.09,18.09,0,0,1-7.19-7.55,25.38,25.38,0,0,1-2.6-12,25.56,25.56,0,0,1,2.56-11.94,18,18,0,0,1,7.16-7.51A21.31,21.31,0,0,1,228.56,86.76Zm.07,6.88q-5.9,0-8.95,3.87t-3.06,11.3q0,7.44,3.06,11.34t8.95,3.9q5.9,0,9-3.9t3.09-11.34q0-7.44-3.05-11.3T228.63,93.64Z" transform="translate(-2.11)"/><path class="cls-1" d="M255,129.53v-7.1h5.9V95.26H255V88.17h18.61c4.26,0,7.59.55,10,1.65a9.67,9.67,0,0,1,5,4.7,17.22,17.22,0,0,1,1.4,7.2q0,6.81-3.61,10.22t-11.2,3.4H269v7.09h3.65v7.1Zm14.12-21.21h4.14a16.75,16.75,0,0,0,4.81-.56,4.47,4.47,0,0,0,2.63-2,7.78,7.78,0,0,0,.85-4,7,7,0,0,0-1-4.07,4.94,4.94,0,0,0-2.81-1.93,16.4,16.4,0,0,0-4.49-.53h-4.14Zm13.06,21.21-8.15-15,7.59-1.26,5.54,9.19h7v7.1Z" transform="translate(-2.11)"/><path class="cls-1" d="M299.13,88.17h21.49v7.09H314v27.17h6.67v7.1H299.06v-7.1h6.81V95.26h-6.74Z" transform="translate(-2.11)"/><path class="cls-1" d="M327.85,88.17h31.32v5.12l-21.7,29.14h14.39l2.46-6.74,6.74,2.25-3.93,11.59H326.8v-5.62l21.34-28.65H334l-1.34,6.18-6.95-1Z" transform="translate(-2.11)"/><path class="cls-1" d="M385.92,86.76a21.59,21.59,0,0,1,10.74,2.6,18.09,18.09,0,0,1,7.24,7.51,25.32,25.32,0,0,1,2.6,11.94,25.5,25.5,0,0,1-2.6,12,18.11,18.11,0,0,1-7.2,7.55,23.21,23.21,0,0,1-21.35,0,18.09,18.09,0,0,1-7.19-7.55,25.38,25.38,0,0,1-2.6-12,25.56,25.56,0,0,1,2.56-11.94,18,18,0,0,1,7.16-7.51A21.29,21.29,0,0,1,385.92,86.76Zm.07,6.88q-5.89,0-8.95,3.87T374,108.81q0,7.44,3.06,11.34t8.95,3.9q5.89,0,9-3.9t3.09-11.34q0-7.44-3.06-11.3T386,93.64Z" transform="translate(-2.11)"/><path class="cls-1" d="M412.39,88.17h18.19l15,29.7V95.26h-5.41V88.17h19.31v7.09h-6.6v34.27h-9.41L425.67,95.19l.07,27.24h5.89v7.1H412.32v-7.1h6.11V95.26h-6Z" transform="translate(-2.11)"/><path class="cls-1" d="M217.59,13l-.08-1.64s0,.6-.08,1.64-.12,2.53-.16,4.31c0,.77,0,1.6-.06,2.46.22.42.43.84.63,1.25,0-1.32-.07-2.58-.09-3.71C217.71,15.49,217.63,14,217.59,13Z" transform="translate(-2.11)"/><path class="cls-1" d="M217.51,6.49s.09-.4.16-1a20.76,20.76,0,0,0,.11-2.23A21,21,0,0,0,217.67,1c-.08-.6-.16-1-.16-1s-.08.41-.16,1a21,21,0,0,0-.11,2.24,20.76,20.76,0,0,0,.11,2.23C217.42,6.09,217.51,6.49,217.51,6.49Z" transform="translate(-2.11)"/><path class="cls-1" d="M223.18,31.2c.08-.28.17-.59.26-.93.36-1.35.77-3.15,1.12-5s.61-3.65.76-5,.18-2.32.18-2.32-.31.88-.66,2.23-.77,3.15-1.12,5-.61,3.65-.76,5c0,.23-.05.44-.07.64S223.09,31.07,223.18,31.2Z" transform="translate(-2.11)"/><path class="cls-1" d="M227.21,10.23a40.21,40.21,0,0,0,.94-4.12c.14-.75.25-1.51.34-2.23s.15-1.39.22-2c.12-1.15.16-1.92.16-1.92s-.25.73-.54,1.85c-.15.56-.32,1.21-.51,1.91s-.35,1.44-.49,2.2a40.09,40.09,0,0,0-.62,4.18c-.11,1.15-.1,1.93-.1,1.93S226.9,11.34,227.21,10.23Z" transform="translate(-2.11)"/><path class="cls-1" d="M229.31,29.9a22.18,22.18,0,0,1,2.6-5.41c.78-2,1.55-4.08,2.29-6,1-2.73,2-5.3,2.76-7.49s1.43-4,1.89-5.31.7-2,.7-2l-.85,2c-.53,1.26-1.31,3-2.19,5.2s-1.93,4.68-3,7.39l-3.35,8.51q-.91,2.38-1.8,4.73A4.6,4.6,0,0,0,229.31,29.9Z" transform="translate(-2.11)"/><path class="cls-1" d="M238.21,27.6l2-3.32c1.4-2.31,2.65-4.49,3.75-6.35s2-3.44,2.6-4.53l1-1.73-1.11,1.65c-.69,1-1.7,2.54-2.86,4.36s-2.55,3.93-4,6.22c-.57.9-1.15,1.83-1.73,2.77C238,27,238.1,27.31,238.21,27.6Z" transform="translate(-2.11)"/><path class="cls-1" d="M241.71,32.86l.53.58c.71-.76,1.44-1.56,2.17-2.38,1.77-2,3.49-4,4.74-5.58.63-.77,1.12-1.45,1.48-1.9s.55-.74.55-.74-.25.22-.67.63-1,1-1.73,1.69c-1.41,1.42-3.23,3.36-5,5.34C243.07,31.29,242.37,32.09,241.71,32.86Z" transform="translate(-2.11)"/><path class="cls-1" d="M256.48,17.28c.67-.73,1.35-1.44,1.8-2a6.52,6.52,0,0,0,.65-1.07,6,6,0,0,0-1,.76c-.54.51-1.18,1.27-1.82,2s-1.26,1.53-1.71,2.12-.74,1-.74,1,.38-.33.92-.84S255.81,18,256.48,17.28Z" transform="translate(-2.11)"/><path class="cls-1" d="M245.76,38.26l0,0c.16-.09.71-.38,1.44-.85.38-.24.82-.53,1.27-.85a4.61,4.61,0,0,0,.34-1c0-.08,0-.15,0-.23-.74.62-1.42,1.23-2,1.75S245.89,38.11,245.76,38.26Z" transform="translate(-2.11)"/><path class="cls-1" d="M258.27,28.41s.6-.34,1.46-.91,2-1.35,3.08-2.17c.55-.41,1.1-.82,1.6-1.23a16,16,0,0,0,1.31-1.17,9.67,9.67,0,0,0,1.15-1.3,10,10,0,0,0-1.54.81c-.44.28-.93.61-1.44,1s-1,.82-1.57,1.26c-1.05.87-2.07,1.79-2.82,2.49S258.27,28.41,258.27,28.41Z" transform="translate(-2.11)"/><path class="cls-1" d="M258.24,38.11c.05.2.1.39.16.59,1.67-.81,3.65-1.84,5.62-2.9,2.37-1.29,4.71-2.64,6.44-3.7.87-.53,1.57-1,2.07-1.31l.78-.51s-.32.12-.86.37-1.31.58-2.22,1c-1.83.87-4.24,2.1-6.61,3.38C261.7,36.09,259.81,37.17,258.24,38.11Z" transform="translate(-2.11)"/><path class="cls-1" d="M260.76,45.35c.11.24.23.47.35.7,1.51-.49,3.11-1,4.7-1.58,1.16-.39,2.31-.8,3.43-1.2l.65-1c-1.41.45-2.88.94-4.35,1.44C263.91,44.23,262.28,44.8,260.76,45.35Z" transform="translate(-2.11)"/><path class="cls-1" d="M275.55,40.67l0,.19c1-.41,1.89-.72,2.51-1l1.15-.45-1.18.34c-.64.18-1.5.46-2.52.75Z" transform="translate(-2.11)"/><path class="cls-1" d="M164.28,42.59l.32-.39c-2.26-.73-4.17-1.3-5.51-1.72L157,39.84l2.07.8C160.32,41.11,162.11,41.81,164.28,42.59Z" transform="translate(-2.11)"/><path class="cls-1" d="M164.8,32.26a24,24,0,0,0,2.27,1.1c.64.27,1.08.41,1.08.41s-.36-.29-.93-.68-1.35-.87-2.16-1.31-1.63-.83-2.27-1.1-1.08-.4-1.08-.4.36.29.93.68A25,25,0,0,0,164.8,32.26Z" transform="translate(-2.11)"/><path class="cls-1" d="M177.64,38.65c-1-.51-1.86-.94-2.61-1.3.06.15.13.29.19.43.64.38,1.37.82,2.19,1.29,1.49.84,3.2,1.86,5.06,2.9l.85.47c.19-.19.37-.39.55-.58l-1-.55C180.94,40.31,179.16,39.43,177.64,38.65Z" transform="translate(-2.11)"/><path class="cls-1" d="M172.69,25.51c1.38,1.14,3,2.49,4.71,3.89s3.61,2.9,5.48,4.38c1.59,1.25,3.19,2.5,4.73,3.68.16-.22.3-.44.43-.64-1.49-1.21-3.06-2.46-4.64-3.71-1.88-1.47-3.75-2.94-5.53-4.3s-3.46-2.6-4.89-3.68-2.65-1.93-3.49-2.55l-1.34-.95,1.24,1.08C170.19,23.38,171.31,24.37,172.69,25.51Z" transform="translate(-2.11)"/><path class="cls-1" d="M181.38,20.72c1.4,1.57,2.85,3.09,4,4.19s1.93,1.8,1.93,1.8-.59-.88-1.57-2.12-2.31-2.87-3.71-4.44-2.85-3.08-4-4.19-1.94-1.79-1.94-1.79.6.88,1.57,2.12S180,19.15,181.38,20.72Z" transform="translate(-2.11)"/><path class="cls-1" d="M187.66,12.42c.74,1.27,1.58,2.77,2.52,4.35s1.95,3.27,3,4.94c.79,1.27,1.57,2.54,2.34,3.75.17-.23.35-.45.52-.67l-2.13-3.52c-1-1.67-2.07-3.34-3.07-4.89s-1.94-3-2.74-4.21-1.52-2.24-2-2.95-.78-1.11-.78-1.11.24.44.64,1.2S186.92,11.14,187.66,12.42Z" transform="translate(-2.11)"/><path class="cls-1" d="M196.42,6.76c.6,1.86,1.47,4.3,2.41,6.72.53,1.39,1.09,2.76,1.62,4,.15-.3.29-.6.44-.91-.4-1.09-.83-2.25-1.27-3.4-.94-2.42-1.94-4.82-2.75-6.59-.39-.89-.76-1.62-1-2.14s-.4-.8-.4-.8.09.32.25.86S196.11,5.84,196.42,6.76Z" transform="translate(-2.11)"/><path class="cls-1" d="M278.11,61.78l-4.83-7.12-.23-1.87L272,54.26a57.11,57.11,0,0,0-3.26,5.05v0l-.32.56-.11.19-.23.37-.14.22-.21.33-.15.23-.21.31-.15.22-.22.29-.15.21a3,3,0,0,1-.22.28l-.15.2-.22.26-.15.18-.23.26-.13.14-.32.32,0,0c-.12.11-.23.22-.34.31l-.11.09-.22.17-.13.09-.19.12-.12.06-.17.08-.12,0a.8.8,0,0,1-.15,0l-.11,0h-.22a.72.72,0,0,1-.2-.09h0c-1.68-1.1-4.69-6.33-5.81-10.87a67.54,67.54,0,0,0-3.11-9.23l-.36-.84-.7.51c-.18.14-1.8,1.44-2.54,5.49-.47,2.6-2.85,4.38-3.93,5.07-1.22-2-4.39-7-6.08-7.85-.94-.48-2.66-4.69-3.72-8.32l-.4-1.35-.84,1.06a22,22,0,0,0-3.35,6.25c-.6,2-3.5,4.23-5,5.22-2.1-2.39-6.51-7.79-7-10.17-.55-2.94-3.46-7.47-5.61-10.62l-.24-.36a10.34,10.34,0,0,1-.59-1.12c-.08-.16-.15-.32-.23-.49s-.28-.62-.43-1-.17-.42-.26-.63-.29-.69-.43-1c-.25-.6-.49-1.19-.7-1.71-.11-.3-.22-.57-.32-.82s-.12-.33-.18-.47l0-.13-.3-.79-.49-1.28-.58,2.16c-1.36,5.16-6,15.25-8.34,18A92.71,92.71,0,0,0,194,51.07c-1.5,2.71-6.22,7.37-7.48,8.6A7.36,7.36,0,0,1,184.07,58l0,0c-.27-.28-.52-.57-.75-.86s-.56-.75-.82-1.11l-.13-.18A10,10,0,0,0,181,54.23l0,0a4.71,4.71,0,0,0-.56-.44,1,1,0,0,1-.21-.16,4.32,4.32,0,0,1-.72-1c-.06-.13-.13-.26-.19-.4-.14-.31-.28-.64-.41-1a27.87,27.87,0,0,1-1.19-4.11l-.57-2.79L176.32,47c-.64,2.11-2.65,7.89-4.23,9.28a13.62,13.62,0,0,0-2.62,4,14.52,14.52,0,0,1-3.21,4.67c-2.83,2.3-7.46,8.25-7.66,8.5l-1.06,1.37,23.9-.5,16,4.21,24.5-5,43.33,5.17,21.5-.33ZM178.52,55.4l-.14-.18c0,.57,0,1.1,0,1.58s-.18,1.06-.18,1.49a5.65,5.65,0,0,0,0,1.06,3.23,3.23,0,0,0,0,.43,2,2,0,0,1-.3-.31,3,3,0,0,1-.53-1.07,8.66,8.66,0,0,1-.27-1.63,12.42,12.42,0,0,0-.13-1.66,9.87,9.87,0,0,0-.29-1.63l0-.14c-.12.3-.23.61-.36.92s-.4.91-.6,1.36c0,.14,0,.28,0,.43a10.54,10.54,0,0,0,0,1.23c0,.43,0,.87-.06,1.28a8.37,8.37,0,0,1-.18,1.13,7.77,7.77,0,0,1-.24.81c-.09.2-.13.32-.13.32l-.16-.3a7.89,7.89,0,0,1-.29-.79c0-.23-.14-.49-.2-.77l-.15.19a17.4,17.4,0,0,0-1.23,1.92c-.19.33-.35.83-.58,1.22a2.66,2.66,0,0,0-.09.46,5,5,0,0,0,.05,1.13,7.57,7.57,0,0,1,0,1.5,9.49,9.49,0,0,1-.28,1.39,17.53,17.53,0,0,1-.87,2.16c-.26.6-.53,1.08-.67,1.45s-.24.57-.24.57a5.5,5.5,0,0,1,0-.64,10.07,10.07,0,0,1,.17-1.68c.12-.66.27-1.42.42-2.23a2.34,2.34,0,0,0,0-.26l-.2.11-3.59,1.83c-.27.13-.72.47-1.13.65a6.59,6.59,0,0,0-.24.79,8.35,8.35,0,0,0-.28,1.2,7.37,7.37,0,0,1-.31,1.11,2.06,2.06,0,0,1-.43.7,1.41,1.41,0,0,1-.22.2,2.35,2.35,0,0,0,.11-.28,4.4,4.4,0,0,0,.14-.75c.05-.31,0-.68.08-1.1a9.56,9.56,0,0,1,.22-1.32c0-.14.09-.27.14-.4-1.44,1.31-2.85,2.67-4.27,4a50.45,50.45,0,0,1,4.36-5.4c.39-.42.79-.84,1.22-1.24l.63-.56a7.89,7.89,0,0,0,.58-.57,8.61,8.61,0,0,0,.95-1.29c.31-.46.58-1,.85-1.46a33,33,0,0,1,1.73-3.15,8.16,8.16,0,0,1,.58-.77,2.79,2.79,0,0,1,.34-.35l.31-.31a6.06,6.06,0,0,0,.91-1.21,27,27,0,0,0,1.53-3c.46-1.06.89-2.17,1.28-3.25l.8-2.17.47,2.22c.11.52.26,1.06.39,1.59s.3,1,.46,1.57.35,1,.57,1.53a4.39,4.39,0,0,0,.85,1.36A3.14,3.14,0,0,1,178.52,55.4ZM218.75,40c-.14-.35-.3-.69-.47-1-.32-.68-.7-1.32-1.08-2-.77-1.28-1.62-2.49-2.46-3.7l-1.3-1.81a21.37,21.37,0,0,1-1.16-2c.06.33.13.65.18,1a8.45,8.45,0,0,1,.08,1.18,5.21,5.21,0,0,1,0,.87l-.05.34-.22-.25a6.56,6.56,0,0,1-.46-.7c-.12-.25-.29-.54-.42-.85-.34.25-.75.53-1,.72a3.63,3.63,0,0,1,0,1.09l-.15,1c-.14.63-.25,1.28-.33,1.91s-.23,1.21-.31,1.72-.23.93-.29,1.23-.15.48-.15.48l-.14-.48c0-.3-.19-.74-.24-1.26a16.79,16.79,0,0,1-.13-1.73h0c-.91,1.24-1.83,2.47-2.74,3.7-.38.51-.76,1-1.13,1.52.33-.26.68-.49,1-.73s.65-.44.85-.59l.36-.2-.15.41a7.49,7.49,0,0,1-.47,1,7.6,7.6,0,0,1-.88,1.29A8.63,8.63,0,0,1,204,43.38l-.05,0c0,.1-.07.2-.1.31a6.19,6.19,0,0,0-.4,1.62,13.24,13.24,0,0,0,.14,2c0,.77,0,1.54-.09,2.25a12.32,12.32,0,0,1-.39,1.91,9.58,9.58,0,0,1-.48,1.29l-.24.46s0-.19,0-.53-.06-.8,0-1.35-.07-1.19-.06-1.85,0-1.39-.1-2.09v-.25a38.88,38.88,0,0,0-4.74,3.28,2.09,2.09,0,0,0-.05.21,1.52,1.52,0,0,0,.2.94,8.09,8.09,0,0,0,.8,1.15c.31.41.63.81,1,1.19a17,17,0,0,0,2,2.23,5.4,5.4,0,0,1,1,1.25,5.66,5.66,0,0,1,.52,1.39,7.89,7.89,0,0,1,.14,2.1c0,.49-.07.78-.07.78s-.07-.27-.21-.74a14.39,14.39,0,0,0-.63-1.83,3.69,3.69,0,0,0-.6-1,8.72,8.72,0,0,0-.92-.88c-.27-.22-.55-.47-.83-.74a7.52,7.52,0,0,1,.18.85,6.88,6.88,0,0,1,0,1.2c0,.2-.07.4-.11.59s-.06.17-.07.3a8.88,8.88,0,0,0,.2,1.56,3.22,3.22,0,0,1,0,1.39.91.91,0,0,1-.29.43.83.83,0,0,0,0-.46,4.24,4.24,0,0,0-.48-1c-.11-.23-.24-.49-.38-.75a2.89,2.89,0,0,1-.31-1.09,2.41,2.41,0,0,1,.05-.67c0-.14,0-.28,0-.42a4.2,4.2,0,0,0-.06-.86,5.5,5.5,0,0,0-.36-1.72,15.48,15.48,0,0,0-.62-1.5c-.1-.18-.18-.36-.26-.53a6,6,0,0,1-.08,1.09,4.93,4.93,0,0,1-.55,1.22c-.2.34-.41.62-.61.91-.4.58-.86,1-1.21,1.47a12.58,12.58,0,0,1-.94,1l-.38.33s.05-.19.16-.52a12,12,0,0,1,.5-1.31c.24-.5.48-1.13.82-1.72.12-.2.23-.41.34-.61a13.21,13.21,0,0,0-3,1.05l0,0c-1.22,1.2-2.46,2.37-3.76,3.45,1.15-1.27,2.3-2.55,3.41-3.86.55-.66,1.1-1.32,1.62-2s1-1.37,1.49-2.09.82-1.51,1.27-2.28.89-1.53,1.35-2.29c.91-1.51,1.88-3,2.89-4.41.51-.72,1-1.43,1.57-2.13l.4-.5.39-.51c.23-.33.46-.66.69-1,.92-1.44,1.75-3,2.55-4.53s1.57-3.13,2.27-4.74a42,42,0,0,0,1.84-4.9l.49-1.66.68,1.54c.61,1.38,1.2,2.78,1.84,4.13l.49,1c.16.33.33.67.5.95l1.19,1.91c.79,1.27,1.52,2.61,2.2,4a16,16,0,0,1,1.54,4.33A8.09,8.09,0,0,0,218.75,40Zm20.54,8.16a6.83,6.83,0,0,1-.73-.79,16.83,16.83,0,0,1-1.23-1.8h0a3.13,3.13,0,0,1-.64.55c0,.39.07.72.11,1.1l.12,1.29c0,.88,0,1.75.05,2.57s-.07,1.58-.09,2.24-.14,1.21-.18,1.6l-.11.61s-.06-.22-.17-.59-.26-.91-.36-1.56-.28-1.4-.35-2.21c-.06-.64-.12-1.31-.19-2a14.1,14.1,0,0,0-2.47,1.7,5.29,5.29,0,0,1-.15,1.41,14.3,14.3,0,0,1-1.34,3.21c-.58,1-1.19,1.89-1.81,2.74a19.79,19.79,0,0,1-1.84,2.13,15.8,15.8,0,0,1-1.45,1.32l-.6.44.4-.66c.26-.4.59-1,1-1.71s.91-1.53,1.45-2.38,1.08-1.8,1.58-2.76a2.39,2.39,0,0,0,.13-.21,25.23,25.23,0,0,0-.37-3.88,15,15,0,0,1-2.23,1.12c.84-.74,1.67-1.45,2.46-2.22A17.42,17.42,0,0,0,232.48,47a5.63,5.63,0,0,0,.7-1.32l0-.17.06-.22c0-.15.07-.28.12-.43.09-.31.2-.6.31-.89a12.56,12.56,0,0,1,.78-1.66,9.09,9.09,0,0,1,.48-.78,7,7,0,0,1,.56-.76l.76-.91.39,1.15c.22.66.47,1.34.73,2s.5,1.34.77,2,.54,1.32.84,2c.16.31.32.63.5.93a3.09,3.09,0,0,0,.64.8A2.44,2.44,0,0,1,239.29,48.13Zm16.08,4.77c-.26-.56-.51-1.12-.77-1.67-.35.47-.71.94-1.07,1.4a3.58,3.58,0,0,1,0,.45,25.31,25.31,0,0,0-.74,2.85,12.51,12.51,0,0,0,0,2.86c.09,1,.05,1.91.08,2.7s0,1.46-.05,1.92-.06.74-.06.74l-.22-.7c-.11-.45-.32-1.07-.48-1.84s-.39-1.66-.52-2.63a17.44,17.44,0,0,1-.25-2.66c-.29.3-.58.59-.88.88s-.65.72-1,1.06c0,.14,0,.27,0,.42-.05.47-.06,1-.13,1.56a7.22,7.22,0,0,1-.43,1.75,19.8,19.8,0,0,1-1.64,2.71c-.53.81-1.13,1.5-1.6,2.11s-1,1-1.26,1.37l-.53.47.3-.67c.22-.41.46-1,.83-1.72s.74-1.53,1.23-2.37a18.94,18.94,0,0,0,1.35-2.6,4.81,4.81,0,0,0,.41-1.3c.09-.47.14-1,.22-1.51a5.8,5.8,0,0,1,.43-1.52c.21-.45.44-.83.64-1.17s.23-.37.34-.54c-.35.24-.7.46-1.06.67a8.88,8.88,0,0,1-1.3.58c.72-.66,1.41-1.33,2.05-2,.32-.35.62-.72.91-1.09a10.58,10.58,0,0,0,.78-1.15,6.17,6.17,0,0,0,.58-1.22,4.37,4.37,0,0,0,.17-.62c0-.18.09-.49.13-.73.1-.52.2-1,.33-1.54.07-.26.15-.52.23-.78l.14-.4.09-.22,0-.12.11-.19.64-1,.53,1.09c.33.66.57,1.33.83,2s.47,1.36.69,2a21.5,21.5,0,0,1,.8,4.29Zm19.29,10.94a3.61,3.61,0,0,1-.35-.33,6.33,6.33,0,0,1-.62-.75,9.27,9.27,0,0,1-.8-1.32,1.64,1.64,0,0,0-.27.32,6.72,6.72,0,0,1,0,.89c-.1.67-.19,1.21-.24,1.8s-.17,1.1-.2,1.57-.14.87-.17,1.15l-.08.45-.2-.41a6.94,6.94,0,0,1-.37-1.14,8.69,8.69,0,0,1-.24-1.68c0-.28,0-.58,0-.89a11.26,11.26,0,0,0-1.34,1,14.35,14.35,0,0,0-1,1c-.16.19-.32.38-.47.58,0,.44-.06.92-.11,1.47a5.31,5.31,0,0,1-.65,1.85,4.08,4.08,0,0,1-1.09,1.13,4.37,4.37,0,0,1-.89.51l-.37.13.19-.38c.13-.21.28-.57.5-.91a9.52,9.52,0,0,0,.57-1.2,3.84,3.84,0,0,0,.31-1.38h0A4.51,4.51,0,0,0,265,66.7a1.84,1.84,0,0,1-.57,0,1.25,1.25,0,0,1-.76-.33,1.49,1.49,0,0,0,1.41-.27,6.26,6.26,0,0,0,1.14-1.05,20.89,20.89,0,0,0,1.92-2.61c.29-.46.57-.93.83-1.41l.81-1.48c.27-.51.55-1,.84-1.48s.56-1,.87-1.46l1-1.52.26,1.79c0,.29.1.61.16.92l.19.93c.14.63.3,1.24.47,1.85a13.36,13.36,0,0,0,1.5,3.5Z" transform="translate(-2.11)"/></g></g></svg>